<svg xmlns="http://www.w3.org/2000/svg" viewBox="0 0 512 512" width="512" height="512">
  <rect width="512" height="512" rx="80" fill="#07070c"/>
  <g transform="translate(156,156)">
    <rect x="0" y="0" width="200" height="200" rx="36" fill="none" stroke="url(#g)" stroke-width="12"/>
    <line x1="40" y1="0" x2="40" y2="-24" stroke="#00f0ff" stroke-width="10" stroke-linecap="round"/>
    <line x1="100" y1="0" x2="100" y2="-24" stroke="#00f0ff" stroke-width="10" stroke-linecap="round"/>
    <line x1="160" y1="0" x2="160" y2="-24" stroke="#00f0ff" stroke-width="10" stroke-linecap="round"/>
    <line x1="40" y1="200" x2="40" y2="224" stroke="#00f0ff" stroke-width="10" stroke-linecap="round"/>
    <line x1="100" y1="200" x2="100" y2="224" stroke="#00f0ff" stroke-width="10" stroke-linecap="round"/>
    <line x1="160" y1="200" x2="160" y2="224" stroke="#00f0ff" stroke-width="10" stroke-linecap="round"/>
    <line x1="0" y1="40" x2="-24" y2="40" stroke="#00f0ff" stroke-width="10" stroke-linecap="round"/>
    <line x1="0" y1="100" x2="-24" y2="100" stroke="#00f0ff" stroke-width="10" stroke-linecap="round"/>
    <line x1="0" y1="160" x2="-24" y2="160" stroke="#00f0ff" stroke-width="10" stroke-linecap="round"/>
    <line x1="200" y1="40" x2="224" y2="40" stroke="#00f0ff" stroke-width="10" stroke-linecap="round"/>
    <line x1="200" y1="100" x2="224" y2="100" stroke="#00f0ff" stroke-width="10" stroke-linecap="round"/>
    <line x1="200" y1="160" x2="224" y2="160" stroke="#00f0ff" stroke-width="10" stroke-linecap="round"/>
    <rect x="50" y="50" width="100" height="100" rx="16" fill="#121225" stroke="#ff007f" stroke-width="8"/>
    <text x="100" y="117" font-family="Arial,sans-serif" font-size="44" font-weight="bold" fill="#00f0ff" text-anchor="middle">J2</text>
  </g>
  <defs>
    <linearGradient id="g" x1="0%" y1="0%" x2="100%" y2="100%">
      <stop offset="0%" stop-color="#00f0ff"/>
      <stop offset="100%" stop-color="#bd00ff"/>
    </linearGradient>
  </defs>
</svg>
