<svg xmlns="http://www.w3.org/2000/svg" viewBox="0 0 192 192" width="192" height="192">
  <rect width="192" height="192" rx="32" fill="#07070c"/>
  <g transform="translate(46,46)">
    <rect x="0" y="0" width="100" height="100" rx="18" fill="none" stroke="url(#g)" stroke-width="6"/>
    <line x1="20" y1="0" x2="20" y2="-12" stroke="#00f0ff" stroke-width="5" stroke-linecap="round"/>
    <line x1="50" y1="0" x2="50" y2="-12" stroke="#00f0ff" stroke-width="5" stroke-linecap="round"/>
    <line x1="80" y1="0" x2="80" y2="-12" stroke="#00f0ff" stroke-width="5" stroke-linecap="round"/>
    <line x1="20" y1="100" x2="20" y2="112" stroke="#00f0ff" stroke-width="5" stroke-linecap="round"/>
    <line x1="50" y1="100" x2="50" y2="112" stroke="#00f0ff" stroke-width="5" stroke-linecap="round"/>
    <line x1="80" y1="100" x2="80" y2="112" stroke="#00f0ff" stroke-width="5" stroke-linecap="round"/>
    <line x1="0" y1="20" x2="-12" y2="20" stroke="#00f0ff" stroke-width="5" stroke-linecap="round"/>
    <line x1="0" y1="50" x2="-12" y2="50" stroke="#00f0ff" stroke-width="5" stroke-linecap="round"/>
    <line x1="0" y1="80" x2="-12" y2="80" stroke="#00f0ff" stroke-width="5" stroke-linecap="round"/>
    <line x1="100" y1="20" x2="112" y2="20" stroke="#00f0ff" stroke-width="5" stroke-linecap="round"/>
    <line x1="100" y1="50" x2="112" y2="50" stroke="#00f0ff" stroke-width="5" stroke-linecap="round"/>
    <line x1="100" y1="80" x2="112" y2="80" stroke="#00f0ff" stroke-width="5" stroke-linecap="round"/>
    <rect x="25" y="25" width="50" height="50" rx="8" fill="#121225" stroke="#ff007f" stroke-width="4"/>
    <text x="50" y="58" font-family="Arial,sans-serif" font-size="22" font-weight="bold" fill="#00f0ff" text-anchor="middle">J2</text>
  </g>
  <defs>
    <linearGradient id="g" x1="0%" y1="0%" x2="100%" y2="100%">
      <stop offset="0%" stop-color="#00f0ff"/>
      <stop offset="100%" stop-color="#bd00ff"/>
    </linearGradient>
  </defs>
</svg>
